<?xml version="1.0" encoding="UTF-8"?><svg id="Layer_1" xmlns="http://www.w3.org/2000/svg" viewBox="0 0 738.3 663.46"><defs><style>.cls-1{fill:none;}.cls-2{fill:#084c4f;}.cls-3{fill:#e07800;}.cls-4{fill:#fff;}</style></defs><rect class="cls-2" x="-11.41" y="-8.28" width="748.65" height="683.15"/><path class="cls-3" d="M344.86,497.06l-.21-23.66c6.39-4.48,11.19-6.67,11.19-11.53l.03-14.13-.44-92.54,19.21,13.49.07,92.33c.01,15.04-9.84,22.71-16.43,27.19-6.17,4.2-13.42,8.85-13.42,8.85Z"/><circle class="cls-1" cx="396" cy="159.05" r="10.22"/><circle class="cls-1" cx="320.99" cy="188.55" r="10.22"/><circle class="cls-1" cx="262.63" cy="146.48" r="10.22"/><circle class="cls-1" cx="428.24" cy="269.74" r="10.22"/><path class="cls-4" d="M428.24,240.48c-16.16,0-29.26,13.1-29.26,29.26,0,12.77,8.19,23.63,19.6,27.62v6.31l-43.83,30.9-.28-91.83,30.64-25v-30.89c11.69-3.83,20.14-14.83,20.14-27.8,0-16.16-13.1-29.26-29.26-29.26s-29.26,13.1-29.26,29.26c0,12.66,8.04,23.44,19.3,27.52v22.11l-30.67,25.02.2,66.23-25.2-16.19v-67.48c11.56-3.91,19.89-14.84,19.89-27.72,0-16.16-13.1-29.26-29.26-29.26s-29.26,13.1-29.26,29.26c0,12.76,8.17,23.6,19.56,27.61v21.76l-38.37-25.25v-38.8c11.08-4.16,18.97-14.86,18.97-27.4,0-16.16-13.1-29.26-29.26-29.26s-29.26,13.1-29.26,29.26c0,13.1,8.61,24.18,20.47,27.92v48.56l57.44,37.81v33.4l44.1,28.33.1,15.2,24.13,16.8,58.04-40.92v-16.12c11.54-3.92,19.84-14.84,19.84-27.7,0-16.16-13.1-29.26-29.26-29.26ZM385.78,159.05c0-5.65,4.58-10.22,10.22-10.22s10.22,4.58,10.22,10.22-4.58,10.22-10.22,10.22-10.22-4.58-10.22-10.22ZM262.63,156.7c-5.65,0-10.22-4.58-10.22-10.22s4.58-10.22,10.22-10.22,10.22,4.58,10.22,10.22-4.58,10.22-10.22,10.22ZM320.99,198.78c-5.65,0-10.22-4.58-10.22-10.22s4.58-10.22,10.22-10.22,10.22,4.58,10.22,10.22-4.58,10.22-10.22,10.22ZM428.24,279.96c-5.65,0-10.22-4.58-10.22-10.22s4.58-10.22,10.22-10.22,10.22,4.58,10.22,10.22-4.58,10.22-10.22,10.22Z"/></svg>