<?xml version="1.0" encoding="UTF-8"?><svg id="Layer_1" xmlns="http://www.w3.org/2000/svg" viewBox="0 0 738.3 663.46"><defs><style>.cls-1{fill:none;}.cls-2{fill:#084c4f;}.cls-3{fill:#e07800;}</style></defs><path class="cls-3" d="M198.88,473.78l-.2-22.55c6.08-4.27,10.66-6.35,10.66-10.98l.03-13.46-.41-88.17,18.3,12.86.06,87.97c.01,14.34-9.5,21.88-15.65,25.91s-12.79,8.43-12.79,8.43Z"/><path class="cls-3" d="M521.37,406.3c2.45,0,4.12.47,5.06,1.4.92.92,1.39,2.55,1.39,4.91v4.31c0,2.45-.47,4.12-1.39,5.06-.94.92-2.61,1.39-5.06,1.39h-4.83c-2.34,0-4-.47-4.98-1.39-.98-.94-1.46-2.61-1.46-5.06v-4.31c0-2.36.48-3.99,1.46-4.91.98-.94,2.64-1.4,4.98-1.4h4.83Z"/><path class="cls-3" d="M260.3,351.41v71.96h-17.58v-71.96h17.58Z"/><path class="cls-3" d="M290.45,351.41l1.68,14.07,1.67,2.04v55.85h-16.85v-71.96h13.51ZM318.6,349.65c5.94,0,10.49,1.68,13.65,4.98,3.16,3.32,4.74,8.26,4.74,14.81v53.93h-16.16v-48.51c0-3.82-.75-6.48-2.22-7.99-1.49-1.51-3.72-2.28-6.69-2.28-1.87,0-3.72.3-5.57.89-1.87.57-3.9,1.56-6.13,2.93-2.24,1.36-5.02,3.22-8.37,5.56l-.98-10.69c4.65-4.59,9.2-8,13.65-10.25,4.46-2.25,9.16-3.38,14.08-3.38ZM362.19,349.65c6.04,0,10.66,1.69,13.87,5.06,3.2,3.37,4.81,8.29,4.81,14.74v53.93h-16.72v-48.51c-.09-3.62-.79-6.24-2.08-7.85-1.31-1.6-3.59-2.42-6.83-2.42-1.95,0-3.83.32-5.64.95-1.81.65-3.83,1.65-6.06,3.01-2.22,1.37-4.92,3.19-8.08,5.42l-.98-10.69c4.74-4.59,9.32-8,13.72-10.25,4.41-2.25,9.07-3.38,13.99-3.38Z"/><path class="cls-3" d="M406.5,351.41l1.68,14.07,1.67,2.04v55.85h-16.85v-71.96h13.51ZM434.65,349.65c5.94,0,10.49,1.68,13.65,4.98,3.16,3.32,4.74,8.26,4.74,14.81v53.93h-16.16v-48.51c0-3.82-.75-6.48-2.22-7.99-1.49-1.51-3.72-2.28-6.69-2.28-1.87,0-3.72.3-5.57.89-1.87.57-3.9,1.56-6.13,2.93-2.24,1.36-5.02,3.22-8.37,5.56l-.98-10.69c4.65-4.59,9.2-8,13.65-10.25,4.46-2.25,9.16-3.38,14.08-3.38ZM478.24,349.65c6.04,0,10.66,1.69,13.87,5.06,3.2,3.37,4.81,8.29,4.81,14.74v53.93h-16.72v-48.51c-.09-3.62-.79-6.24-2.08-7.85-1.31-1.6-3.59-2.42-6.83-2.42-1.95,0-3.83.32-5.64.95-1.81.65-3.83,1.65-6.06,3.01-2.22,1.37-4.92,3.19-8.08,5.42l-.98-10.69c4.74-4.59,9.32-8,13.72-10.25,4.41-2.25,9.07-3.38,13.99-3.38Z"/><path class="cls-3" d="M597,379.11l-.15,10.99h-32.98c-2.93.11-5.03.88-6.3,2.34-1.27,1.46-1.9,3.47-1.9,6.01v3.96c0,2.93.79,5.16,2.34,6.67,1.57,1.51,4,2.27,7.32,2.27,2.64,0,5.57-.53,8.8-1.62,3.22-1.07,6.42-2.63,9.59-4.68,3.19-2.05,6.04-4.5,8.58-7.32v9.23c-.98,1.46-2.4,3.2-4.24,5.21-1.86,1.99-4.14,3.97-6.83,5.93-2.69,1.95-5.75,3.56-9.23,4.83-3.47,1.27-7.31,1.9-11.51,1.9s-8.15-.76-11.58-2.27c-3.41-1.53-6.1-3.76-8.05-6.75-1.96-2.98-2.93-6.66-2.93-11.07v-7.61c0-5.66,1.87-10.09,5.63-13.26,3.76-3.19,8.93-4.77,15.46-4.77h37.97ZM577.94,349.65c5.77,0,10.63.77,14.59,2.28,3.96,1.51,6.96,4.08,9.02,7.69,2.04,3.62,3.07,8.61,3.07,14.95v48.81h-14.06l-2.49-15.54-1.33-2.05v-31.35c0-3.82-.88-6.57-2.63-8.29-1.77-1.71-5.13-2.57-10.12-2.57-3.72,0-8.38.15-14,.45l-.23-10.59c6.08-1.89,14.67-3.79,18.18-3.79Z"/><path class="cls-3" d="M635.54,351.41v71.96h-17.58v-71.96h17.58Z"/><circle class="cls-1" cx="247.61" cy="156.72" r="9.74"/><circle class="cls-1" cx="176.14" cy="184.82" r="9.74"/><circle class="cls-1" cx="120.53" cy="144.74" r="9.74"/><circle class="cls-1" cx="278.33" cy="262.18" r="9.74"/><path class="cls-2" d="M278.33,234.3c-15.4,0-27.88,12.48-27.88,27.88,0,12.17,7.8,22.51,18.67,26.32v6.02l-41.76,29.45-.26-87.5,29.2-23.82v-29.43c11.14-3.65,19.19-14.13,19.19-26.49,0-15.4-12.48-27.88-27.88-27.88s-27.88,12.48-27.88,27.88c0,12.07,7.66,22.34,18.39,26.22v21.07l-29.22,23.84.19,63.1-24.01-15.43v-64.29c11.02-3.72,18.95-14.14,18.95-26.41,0-15.4-12.48-27.88-27.88-27.88s-27.88,12.48-27.88,27.88c0,12.16,7.78,22.49,18.63,26.3v20.74l-36.56-24.06v-36.97c10.56-3.97,18.08-14.16,18.08-26.1,0-15.4-12.48-27.88-27.88-27.88s-27.88,12.48-27.88,27.88c0,12.48,8.2,23.04,19.5,26.6v46.27l54.73,36.02v31.83l42.02,26.99.1,14.48,22.99,16,55.3-38.99v-15.36c10.99-3.74,18.91-14.14,18.91-26.4,0-15.4-12.48-27.88-27.88-27.88ZM237.87,156.72c0-5.38,4.36-9.74,9.74-9.74s9.74,4.36,9.74,9.74-4.36,9.74-9.74,9.74-9.74-4.36-9.74-9.74ZM120.53,154.48c-5.38,0-9.74-4.36-9.74-9.74s4.36-9.74,9.74-9.74,9.74,4.36,9.74,9.74-4.36,9.74-9.74,9.74ZM176.14,194.57c-5.38,0-9.74-4.36-9.74-9.74s4.36-9.74,9.74-9.74,9.74,4.36,9.74,9.74-4.36,9.74-9.74,9.74ZM278.33,271.92c-5.38,0-9.74-4.36-9.74-9.74s4.36-9.74,9.74-9.74,9.74,4.36,9.74,9.74-4.36,9.74-9.74,9.74Z"/></svg>